<mxfile host="app.diagrams.net" modified="2022-09-14T08:39:41.164Z" agent="5.0 (iPad; CPU OS 15_6 like Mac OS X) AppleWebKit/605.1.15 (KHTML, like Gecko) CriOS/105.0.5195.129 Mobile/15E148 Safari/604.1" etag="tKcSFpmjzaSKZOgrYhRa" version="20.3.0" type="github">
  <diagram id="Jdv65tOk0UUm8chGYxXW" name="หน้า-1">
    <mxGraphModel dx="853" dy="658" grid="1" gridSize="10" guides="1" tooltips="1" connect="1" arrows="1" fold="1" page="1" pageScale="1" pageWidth="827" pageHeight="1169" math="0" shadow="0">
      <root>
        <mxCell id="0" />
        <mxCell id="1" parent="0" />
        <mxCell id="Grp_tZaI9g9ipAopP8oz-35" value="" style="edgeStyle=orthogonalEdgeStyle;rounded=0;orthogonalLoop=1;jettySize=auto;html=1;fontSize=14;entryX=1;entryY=0.5;entryDx=0;entryDy=0;" edge="1" parent="1" source="Grp_tZaI9g9ipAopP8oz-30" target="Grp_tZaI9g9ipAopP8oz-25">
          <mxGeometry relative="1" as="geometry">
            <mxPoint x="170" y="850" as="targetPoint" />
            <Array as="points">
              <mxPoint x="490" y="623" />
              <mxPoint x="490" y="870" />
            </Array>
          </mxGeometry>
        </mxCell>
        <mxCell id="Grp_tZaI9g9ipAopP8oz-30" value="&lt;b&gt;Output ‘Bad luck! The correct number is’ 2&lt;/b&gt;" style="shape=parallelogram;perimeter=parallelogramPerimeter;whiteSpace=wrap;html=1;fixedSize=1;fontSize=14;fillColor=#fad9d5;strokeColor=#ae4132;" vertex="1" parent="1">
          <mxGeometry x="290" y="585" width="160" height="75" as="geometry" />
        </mxCell>
        <mxCell id="Grp_tZaI9g9ipAopP8oz-4" value="" style="edgeStyle=orthogonalEdgeStyle;rounded=0;orthogonalLoop=1;jettySize=auto;html=1;fontSize=20;" edge="1" parent="1" source="Grp_tZaI9g9ipAopP8oz-2" target="Grp_tZaI9g9ipAopP8oz-3">
          <mxGeometry relative="1" as="geometry" />
        </mxCell>
        <mxCell id="Grp_tZaI9g9ipAopP8oz-2" value="&lt;b style=&quot;font-size: 20px;&quot;&gt;Start&lt;/b&gt;" style="rounded=1;whiteSpace=wrap;html=1;fillColor=#fad9d5;strokeColor=#ae4132;" vertex="1" parent="1">
          <mxGeometry x="40" y="40" width="130" height="70" as="geometry" />
        </mxCell>
        <mxCell id="Grp_tZaI9g9ipAopP8oz-6" value="" style="edgeStyle=orthogonalEdgeStyle;rounded=0;orthogonalLoop=1;jettySize=auto;html=1;fontSize=20;" edge="1" parent="1" source="Grp_tZaI9g9ipAopP8oz-3" target="Grp_tZaI9g9ipAopP8oz-27">
          <mxGeometry relative="1" as="geometry">
            <mxPoint x="105.00000000000011" y="310.0000000000001" as="targetPoint" />
          </mxGeometry>
        </mxCell>
        <mxCell id="Grp_tZaI9g9ipAopP8oz-3" value="&lt;font size=&quot;1&quot;&gt;&lt;b style=&quot;font-size: 14px;&quot;&gt;My number is 2&lt;/b&gt;&lt;/font&gt;" style="whiteSpace=wrap;html=1;fillColor=#fad9d5;strokeColor=#ae4132;rounded=1;" vertex="1" parent="1">
          <mxGeometry x="45" y="170" width="120" height="60" as="geometry" />
        </mxCell>
        <mxCell id="Grp_tZaI9g9ipAopP8oz-8" value="" style="edgeStyle=orthogonalEdgeStyle;rounded=0;orthogonalLoop=1;jettySize=auto;html=1;fontSize=20;exitX=0.5;exitY=1;exitDx=0;exitDy=0;exitPerimeter=0;" edge="1" parent="1" source="Grp_tZaI9g9ipAopP8oz-27" target="Grp_tZaI9g9ipAopP8oz-7">
          <mxGeometry relative="1" as="geometry">
            <mxPoint x="105.00000000000011" y="370" as="sourcePoint" />
          </mxGeometry>
        </mxCell>
        <mxCell id="Grp_tZaI9g9ipAopP8oz-10" value="" style="edgeStyle=orthogonalEdgeStyle;rounded=0;orthogonalLoop=1;jettySize=auto;html=1;fontSize=20;" edge="1" parent="1" source="Grp_tZaI9g9ipAopP8oz-7">
          <mxGeometry relative="1" as="geometry">
            <mxPoint x="300" y="480" as="targetPoint" />
          </mxGeometry>
        </mxCell>
        <mxCell id="Grp_tZaI9g9ipAopP8oz-12" value="" style="edgeStyle=orthogonalEdgeStyle;rounded=0;orthogonalLoop=1;jettySize=auto;html=1;fontSize=14;" edge="1" parent="1" source="Grp_tZaI9g9ipAopP8oz-7">
          <mxGeometry relative="1" as="geometry">
            <mxPoint x="105.00000000000011" y="580" as="targetPoint" />
          </mxGeometry>
        </mxCell>
        <mxCell id="Grp_tZaI9g9ipAopP8oz-7" value="&lt;b style=&quot;font-size: 14px;&quot;&gt;Is the number higher than 10?&lt;/b&gt;" style="rhombus;whiteSpace=wrap;html=1;fillColor=#fad9d5;strokeColor=#ae4132;rounded=1;arcSize=0;" vertex="1" parent="1">
          <mxGeometry x="17.5" y="440" width="175" height="80" as="geometry" />
        </mxCell>
        <mxCell id="Grp_tZaI9g9ipAopP8oz-15" value="" style="edgeStyle=orthogonalEdgeStyle;rounded=0;orthogonalLoop=1;jettySize=auto;html=1;fontSize=14;" edge="1" parent="1" source="Grp_tZaI9g9ipAopP8oz-13">
          <mxGeometry relative="1" as="geometry">
            <mxPoint x="300" y="620" as="targetPoint" />
          </mxGeometry>
        </mxCell>
        <mxCell id="Grp_tZaI9g9ipAopP8oz-17" value="" style="edgeStyle=orthogonalEdgeStyle;rounded=0;orthogonalLoop=1;jettySize=auto;html=1;fontSize=14;" edge="1" parent="1" source="Grp_tZaI9g9ipAopP8oz-13">
          <mxGeometry relative="1" as="geometry">
            <mxPoint x="104.99999999999989" y="720" as="targetPoint" />
          </mxGeometry>
        </mxCell>
        <mxCell id="Grp_tZaI9g9ipAopP8oz-13" value="&lt;b&gt;Is the number 2?&lt;/b&gt;" style="rhombus;whiteSpace=wrap;html=1;fontSize=14;fillColor=#fad9d5;strokeColor=#ae4132;" vertex="1" parent="1">
          <mxGeometry x="21.25" y="580" width="167.5" height="80" as="geometry" />
        </mxCell>
        <mxCell id="Grp_tZaI9g9ipAopP8oz-26" value="" style="edgeStyle=orthogonalEdgeStyle;rounded=0;orthogonalLoop=1;jettySize=auto;html=1;fontSize=14;" edge="1" parent="1" target="Grp_tZaI9g9ipAopP8oz-25">
          <mxGeometry relative="1" as="geometry">
            <mxPoint x="105.00000000000011" y="790" as="sourcePoint" />
          </mxGeometry>
        </mxCell>
        <mxCell id="Grp_tZaI9g9ipAopP8oz-18" value="&lt;b&gt;YES&lt;/b&gt;" style="text;html=1;strokeColor=none;fillColor=none;align=center;verticalAlign=middle;whiteSpace=wrap;rounded=0;fontSize=14;" vertex="1" parent="1">
          <mxGeometry x="100" y="670" width="60" height="30" as="geometry" />
        </mxCell>
        <mxCell id="Grp_tZaI9g9ipAopP8oz-19" value="&lt;b&gt;YES&lt;/b&gt;" style="text;html=1;strokeColor=none;fillColor=none;align=center;verticalAlign=middle;whiteSpace=wrap;rounded=0;fontSize=14;" vertex="1" parent="1">
          <mxGeometry x="210" y="450" width="60" height="30" as="geometry" />
        </mxCell>
        <mxCell id="Grp_tZaI9g9ipAopP8oz-20" value="&lt;b&gt;NO&lt;/b&gt;" style="text;html=1;strokeColor=none;fillColor=none;align=center;verticalAlign=middle;whiteSpace=wrap;rounded=0;fontSize=14;" vertex="1" parent="1">
          <mxGeometry x="210" y="625" width="60" height="30" as="geometry" />
        </mxCell>
        <mxCell id="Grp_tZaI9g9ipAopP8oz-23" value="&lt;b&gt;NO&lt;/b&gt;" style="text;html=1;strokeColor=none;fillColor=none;align=center;verticalAlign=middle;whiteSpace=wrap;rounded=0;fontSize=14;" vertex="1" parent="1">
          <mxGeometry x="100" y="530" width="60" height="40" as="geometry" />
        </mxCell>
        <mxCell id="Grp_tZaI9g9ipAopP8oz-25" value="&lt;b&gt;&lt;font style=&quot;font-size: 19px;&quot;&gt;End&lt;/font&gt;&lt;/b&gt;" style="whiteSpace=wrap;html=1;fontSize=14;fillColor=#fad9d5;strokeColor=#ae4132;rounded=1;" vertex="1" parent="1">
          <mxGeometry x="45" y="840" width="120" height="60" as="geometry" />
        </mxCell>
        <mxCell id="Grp_tZaI9g9ipAopP8oz-27" value="&lt;b style=&quot;font-size: 14px;&quot;&gt;Enter number&lt;/b&gt;" style="shape=parallelogram;perimeter=parallelogramPerimeter;whiteSpace=wrap;html=1;fixedSize=1;fontSize=19;fillColor=#fad9d5;strokeColor=#ae4132;" vertex="1" parent="1">
          <mxGeometry x="33.75" y="290" width="142.5" height="70" as="geometry" />
        </mxCell>
        <mxCell id="Grp_tZaI9g9ipAopP8oz-33" value="" style="edgeStyle=orthogonalEdgeStyle;rounded=0;orthogonalLoop=1;jettySize=auto;html=1;fontSize=14;entryX=1;entryY=0.25;entryDx=0;entryDy=0;" edge="1" parent="1" source="Grp_tZaI9g9ipAopP8oz-28" target="Grp_tZaI9g9ipAopP8oz-25">
          <mxGeometry relative="1" as="geometry">
            <mxPoint x="550" y="480" as="targetPoint" />
            <Array as="points">
              <mxPoint x="520" y="480" />
              <mxPoint x="520" y="855" />
            </Array>
          </mxGeometry>
        </mxCell>
        <mxCell id="Grp_tZaI9g9ipAopP8oz-28" value="&lt;b&gt;‘Too high! You must guess a number between 1 and 10’&lt;/b&gt;" style="shape=parallelogram;perimeter=parallelogramPerimeter;whiteSpace=wrap;html=1;fixedSize=1;fontSize=14;fillColor=#fad9d5;strokeColor=#ae4132;" vertex="1" parent="1">
          <mxGeometry x="290" y="440" width="160" height="80" as="geometry" />
        </mxCell>
        <mxCell id="Grp_tZaI9g9ipAopP8oz-31" value="&lt;b&gt;‘Well done! You guessed correctly.’&lt;/b&gt;" style="shape=parallelogram;perimeter=parallelogramPerimeter;whiteSpace=wrap;html=1;fixedSize=1;fontSize=14;fillColor=#fad9d5;strokeColor=#ae4132;" vertex="1" parent="1">
          <mxGeometry x="40" y="720" width="150" height="70" as="geometry" />
        </mxCell>
      </root>
    </mxGraphModel>
  </diagram>
</mxfile>
